Coordinates
version=1
nRows=14
nColumns=33
inDegrees=yes

Units are S.I. units (second, meters, Newtons, ...)
Angles are in degrees.

endheader
time	ground_thorax_rot_x	ground_thorax_rot_y	ground_thorax_rot_z	ground_thorax_tx	ground_thorax_ty	ground_thorax_tz	clav_prot_r	clav_elev_r	scapula_abduction_r	scapula_elevation_r	scapula_upward_rot_r	scapula_winging_r	shoulder_elv_r	plane_of_elev_r	axial_rot_r	elbow_flexion_r	pro_sup_r	wrist_flex_r	wrist_dev_r	clav_prot_l	clav_elev_l	scapula_abduction_l	scapula_elevation_l	scapula_upward_rot_l	scapula_winging_l	shoulder_elv_l	plane_of_elev_l	axial_rot_l	elbow_flexion_l	pro_sup_l	wrist_flex_l	wrist_dev_l	
2.8900	38.118811	11.043394	16.873329	-250.679329	835.798168	7.281298	14.648723	37.323318	36.011997	45.000000	-45.000000	3151.179976	-108.630313	149.411258	-116.603473	1464.924113	152.261441	13.931378	4.252009	9.984890	-45.000000	-36.524611	45.000000	-45.000000	-2057.500391	438.475685	16.193098	-64.232053	1102.409538	177.486168	-1.881775	-10.961185	
2.9000	38.082116	11.130573	16.968821	-250.723351	835.102362	7.156282	14.547707	37.311965	35.896304	45.000000	-45.000000	3151.272722	-108.690041	149.424935	-116.485633	1464.913461	151.968929	13.835190	4.346293	10.000300	-45.000000	-36.476239	45.000000	-45.000000	-2057.504767	438.412960	16.146916	-64.184598	1102.333119	177.379904	-1.732838	-10.923167	
2.9100	38.044094	11.218997	17.055094	-250.728761	834.415064	7.037884	14.393434	37.339829	35.747595	45.000000	-45.000000	3151.379565	-108.725284	149.423575	-116.378054	1464.896633	151.716028	13.687439	4.481951	9.996352	-45.000000	-36.436539	45.000000	-45.000000	-2057.531439	438.355121	16.099488	-64.093200	1102.260151	177.244938	-1.515495	-10.846729	
2.9200	38.007327	11.302181	17.151446	-250.635871	833.743811	6.935819	14.324642	37.346841	35.652663	45.000000	-45.000000	3151.453325	-108.778219	149.438878	-116.289864	1464.903575	151.569671	13.620865	4.564197	10.004598	-45.000000	-36.402725	45.000000	-45.000000	-2057.550595	438.294099	16.086276	-63.974123	1102.206402	177.054656	-1.403888	-10.838342	
2.9300	37.969660	11.372779	17.252257	-250.456483	833.091846	6.848826	14.288174	37.326364	35.592778	45.000000	-45.000000	3151.504775	-108.841585	149.461564	-116.226026	1464.920409	151.513645	13.585358	4.631505	10.017101	-45.000000	-36.377072	45.000000	-45.000000	-2057.570243	438.229009	16.096948	-63.816858	1102.170865	176.801243	-1.338982	-10.856528	
2.9400	37.931317	11.424491	17.349089	-250.195993	832.463479	6.776545	14.274535	37.332730	35.538280	45.000000	-45.000000	3151.552207	-108.886491	149.471706	-116.183033	1464.949831	151.538678	13.570060	4.686824	10.024374	-45.000000	-36.366837	45.000000	-45.000000	-2057.594858	438.163264	16.122429	-63.614707	1102.163636	176.472783	-1.304562	-10.892359	
2.9500	37.890453	11.460960	17.450511	-249.879082	831.861690	6.715433	14.271058	37.310358	35.507155	45.000000	-45.000000	3151.582671	-108.930835	149.484594	-116.169621	1464.978452	151.615457	13.565076	4.740137	10.033764	-45.000000	-36.360946	45.000000	-45.000000	-2057.621620	438.090975	16.165076	-63.377153	1102.168853	176.068805	-1.293453	-10.938503	
2.9600	37.844851	11.479193	17.549719	-249.537078	831.288843	6.660617	14.257768	37.332709	35.456031	45.000000	-45.000000	3151.621652	-108.942302	149.476670	-116.178289	1465.007179	151.707119	13.549346	4.798793	10.033377	-45.000000	-36.362661	45.000000	-45.000000	-2057.655287	438.018298	16.208775	-63.104467	1102.185487	175.590873	-1.273948	-10.979628	
2.9700	37.792112	11.483622	17.656558	-249.197157	830.747262	6.607580	14.245723	37.322813	35.422602	45.000000	-45.000000	3151.650039	-108.952883	149.470125	-116.217007	1465.027618	151.785200	13.535108	4.856134	10.035896	-45.000000	-36.360563	45.000000	-45.000000	-2057.686013	437.942308	16.260396	-62.815743	1102.196459	175.047802	-1.265659	-11.026956	
2.9800	37.733591	11.478450	17.764317	-248.880884	830.239538	6.552435	14.228015	37.347219	35.374230	45.000000	-45.000000	3151.680838	-108.943794	149.455062	-116.280794	1465.045288	151.829019	13.514555	4.911205	10.032549	-45.000000	-36.355834	45.000000	-45.000000	-2057.717332	437.868884	16.310903	-62.513857	1102.200704	174.447564	-1.253458	-11.076200	
2.9900	37.668235	11.467527	17.876678	-248.602992	829.768558	6.492228	14.209863	37.335261	35.341421	45.000000	-45.000000	3151.698205	-108.942594	149.448789	-116.376055	1465.055856	151.828763	13.491705	4.963171	10.033615	-45.000000	-36.340891	45.000000	-45.000000	-2057.745037	437.796285	16.368218	-62.213984	1102.188136	173.804319	-1.246371	-11.130267	
3.0000	37.597306	11.449204	17.986653	-248.370391	829.337667	6.425097	14.189334	37.350994	35.295659	45.000000	-45.000000	3151.715601	-108.934791	149.438195	-116.497604	1465.068279	151.784550	13.463028	5.009516	10.032945	-45.000000	-36.320936	45.000000	-45.000000	-2057.769337	437.730540	16.422432	-61.922639	1102.166030	173.132511	-1.237411	-11.184702	
3.0100	37.524119	11.415880	18.082684	-248.182133	828.950432	6.350143	14.170366	37.334569	35.263206	45.000000	-45.000000	3151.727010	-108.935440	149.426583	-116.646933	1465.084089	151.706237	13.430394	5.049648	10.036912	-45.000000	-36.302556	45.000000	-45.000000	-2057.785965	437.672671	16.475109	-61.655690	1102.145231	172.451174	-1.232353	-11.235428	
3.0200	37.453179	11.377135	18.163761	-248.029854	828.610185	6.267272	14.151650	37.342159	35.224213	45.000000	-45.000000	3151.737952	-108.931716	149.411803	-116.822502	1465.106349	151.611380	13.393910	5.082294	10.040972	-45.000000	-36.289031	45.000000	-45.000000	-2057.796484	437.624990	16.518768	-61.418517	1102.129534	171.778499	-1.227915	-11.278998	
